<?xml version="1.0" encoding="UTF-8"?>
<svg viewBox="0 0 515.66 406" xmlns="http://www.w3.org/2000/svg">
 <g fill="none" stroke="#000" stroke-linecap="round" stroke-linejoin="round" stroke-width="2">
  <path d="m240.85 299.05c8.4881 12.95 12.732 26.226 31.341 31.994 6.734 2.4438 12.989-1.6213 16.442 5.1195 13.316 17.912 31.629 36.941 48.023 52.842 5.9801 3.3293 9.0563 11.909 16.823 11.722 6.6677-1.3125 15.151-0.026306 19.629-6.3358 1.336-8.7033-10.077-9.2956-14.178-14.734-3.6407-4.0603-5.6891-9.2001-8.7139-13.682"/>
  <path d="m279.37 331.7c13.059-5.5499 14.038-12.406 14.038-12.406"/>
 </g>
 <g fill="none" stroke="#000" stroke-linecap="round" stroke-linejoin="round">
  <path d="m464.4 257.17c7.6389 15.425 4.5006 34.49-5.462 48.116-9.833 16.729-20.346 34.294-37.061 44.982-11.438 6.3268-23.575 11.593-36.091 15.309-12.578 2.1545-25.503 0.82861-38.038-0.88562-22.541-5.3646-38.785-23.623-52.044-41.493-7.0939-7.5363-8.1938-17.787-8.7637-27.591-0.56079-4.0187-1.5267-8.027-3.3582-11.67" stroke-width="3"/>
  <path d="m339.95 316.57c4.2064-11.072 13.151-20.401 24.654-23.777 15.562-4.9282 29.178-15.567 45.817-16.997 14.021-2.2041 28.27-3.4145 41.82-7.9069 4.4779-1.2117 8.9849-2.7509 12.709-5.6045"/>
  <path d="m334.95 315.14c4.2979-11.448 10.535-23.702 22.533-28.54 5.6311-2.5175 11.279-5.4466 15.219-10.319 9.2991-7.2414 20.928-10.822 32.238-13.412 13.601-1.2242 26.349-7.2575 40.01-7.7292"/>
  <path d="m370.66 285.14c9.5042-5.4812 19.193-12.755 30.786-11.732 13.848-1.8147 25.967-10.63 40.176-10.659 5.8868-0.88391 11.753-1.9013 17.609-2.9661"/>
  <path d="m329.95 315.5c3.3464-10.326 4.9187-22.726 14.999-28.996 7.092-4.0845 15.355-5.681 21.787-11.004"/>
  <path d="m325.3 315.86c2.769-11.912 3.5902-26.081 14.257-34.036 7.3542-6.1201 15.932-10.477 23.958-15.607"/>
  <path d="m354.59 276.57c21.262-9.1422 41.956-21.462 65.525-23.322 1.3716-0.20904 2.7438-0.41522 4.118-0.60638"/>
  <path d="m346.73 312.64c6.1894-6.8695 14.059-11.844 22.608-15.206 10.05-4.616 20.763-7.8555 30.164-13.762 16.456-6.7258 35.249-1.9287 51.623-9.1793 4.7813-1.9155 9.406-4.1921 14.176-6.138"/>
  <path d="m344.23 318.36c10.06-5.9592 20.42-11.774 31.88-14.509 12.962-5.2567 24.239-15.228 38.678-16.329 11.599-2.6605 23.581-3.0679 35.27-4.9609 5.879-1.8096 11.672-4.0075 17.03-7.0579"/>
  <path d="m355.66 318c22.944-4.1113 42.023-18.873 64.162-25.262 13.676-2.6735 28.584-0.91345 41.015-8.334 1.3696-0.58698 2.7392-1.174 4.1088-1.7609"/>
  <path d="m364.59 319.79c18.595-1.7701 35.133-13.484 54.227-12.013 8.6036-0.30096 16.532 3.6798 24.485 5.6863 2.2152 0.085205 4.4304 0.17041 6.6456 0.25562"/>
  <path d="m397.45 307.29c13.075-6.7837 27.261-12.699 42.271-12.102 8.3829-0.87714 17.07-1.8422 24.515-6.1126"/>
  <path d="m414.95 305.86c14.419-4.876 29.504-6.7794 44.643-7.5"/>
  <path d="m431.38 306.93c7.0014-0.51672 14.078-1.5228 21.071-0.35718"/>
  <path d="m333.52 320.5c11.184 7.6064 23.3 15.646 37.383 15.499 12.936-0.3587 25.844-1.6808 38.513-4.3707 9.1515-1.7806 18.556-1.1644 27.318 2.0859"/>
  <path d="m347.09 322.64c20.287 8.3486 43.286 8.3757 64.187 2.3083 9.2396-1.8717 18.432 0.62592 27.598 1.6202"/>
  <path d="m367.45 322.29c10.501 0.24438 21.38 1.3696 31.423-2.4559 15.075-2.3757 30.683-2.1372 45.72 0.31311"/>
  <path d="m328.52 322.29c9.9061 9.0746 21.678 18.107 35.726 18.334 9.4076 2.0784 19.457 3.6757 28.617-0.22376 11.23-2.307 23.036-2.0282 34.236 0.16132l1.2422 0.3445 1.2508 0.312"/>
  <path d="m322.45 324.07c8.2703 7.5934 17.347 14.633 28.211 18.026 11.628 3.9523 23.726 7.2283 36.107 6.89 8.7981 0.17682 17.598-0.004883 26.397 0.083923"/>
  <path d="m318.52 325.5c7.3488 7.0308 14.48 14.845 24.197 18.574 17.225 9.4979 37.19 12.347 56.619 12.343l1.3782 0.0711 1.3775 0.0829"/>
  <path d="m312.45 326.57c9.4175 8.8266 18.382 18.523 30.141 24.288 14.566 8.3824 31.907 10.486 48.43 10.712"/>
  <path d="m306.73 328c11.915 12.815 24.737 26.068 41.98 31.283 7.8657 2.7686 16.121 4.1673 24.092 6.5742"/>
  <path d="m320.66 319.43c0.59021-13.06 1.4191-27.354 10.555-37.636 2.3247-2.6757 4.912-5.1058 7.3017-7.7212"/>
  <path d="m313.88 320.86c1.9935-13.721 3.8785-28.439 12.143-40"/>
  <path d="m306.02 320.14c3.8332-12.657 5.2538-27.061 14.643-37.143"/>
  <path d="m299.23 315.86c2.1388-12.414 9.3601-22.874 16.071-33.214"/>
  <path d="m293.88 308c0.84998-9.8455 7.9621-17.393 13.929-24.643"/>
  <path d="m288.79 297.43c3.8096-5 7.619-10 11.429-15"/>
 </g>
 <g fill="none" stroke="#000">
  <g stroke-linecap="round" stroke-linejoin="round">
   <path d="m82.564 262.22c-15.476-5.7058-28.829-16.175-38.919-29.468-6.8624-7.7744-16.031-14.17-17.509-25.163-2.0196-6.3482-6.0845-14.744-3.6585-19.266-12.332-6.2866-6.4676-22.297-3.6564-32.507 4.9302-8.8658-5.5975-18.052 0.60833-26.43 8.745-3.3812 0.9138-12.211 6.2939-18.488 3.9627-6.5088 10.355-12.982 18.455-13.837-0.82399-10.267 9.1366-15.688 13.132-24.244 8.6491-7.4673 16-17.152 27.984-18.924 10.226-5.9207 22.304-7.1275 31.91-14.33 9.2795-6.3638 19.52-10.235 30.655-11.784 14.884-2.8963 29.577-6.4099 43.297-13.045 24.742-4.1183 50.142-9.3267 75.182-6.1604 10.312 3.8165 20.624-3.6412 31.294-2.8116 14.88-1.1834 29.485 4.3426 44.247 6.0361 12.303 3.8084 24.803 8.2152 36.533 13.335 5.7622 7.542 16.95 4.7477 23.093 12.12 9.1381 7.3709 21.654 12.58 26.532 23.626 0.5477 7.0413 9.9658 9.8198 14.479 14.7 12.022 7.7247 20.144 19.893 28.303 31.207 1.7693 6.2383 5.5026 13.815 3.5181 18.898 11.483 10.064 16.598 25.038 24.916 37.542 1.4717 8.4284 7.6788 16.726 5.5558 25.254 6.1628 4.7369 6.8433 13.899 8.9783 20.885-1.2491 10.143-0.065308 21.126-7.7009 29.064-3.8374 8.0352-9.9473 13.801-17.87 17.755-7.5654 4.5809-17.403 3.7754-25.481 0.72144-19.853-6.017-40.653-5.8849-60.961-9.3321-11.097 4.7001-20.873 11.98-32.894 14.5-11.187 3.57-22.886 9.549-34.786 5.7029 0.29974 10.576-12.312 9.9788-19.875 11.383-14.457 2.8736-29.367 3.5186-43.817 5.3212-15.959 8.7062-33.224 15.684-47.999 26.166-6.2945 7.7878-16.091 12.464-26.119 10.011-10.967-0.77649-19.68-9.3579-29.761-13.333-8.6196-5.5387-20.186-2.022-28.078-9.4674-6.478-3.1324-11.087-9.7668-14.594-15.61-4.0474-5.4369 5.2886-17.734-2.4303-17.715-12.951-0.77094-21.862 0.47846-38.854-2.3127z" stroke-width="3.75"/>
   <path d="m143.68 283.44c19.409-6.9497 24.674-29.405 40.8-40.456 11.969-8.2434 25.047-21.526 40.912-15.393 20.366 6.7506 42.574-0.79218 58.51-14.118 11.527-10.222 26.669-15.475 42.022-13.251 17.796 4.677 21.764-12.831 27.252-25.209 6.8823-13.483 23.247-18.609 26.814-34.429 8.9096-13.769 14.541-29.365 17.166-45.544 0.26056-11.914 8.0008-20.905 15.462-29.354 1.0919-1.5635 2.0562-3.223 2.7928-4.9848" stroke-width="2.5"/>
   <path d="m182.06 309.7c10.674-7.3666 20.459-16.206 27.763-26.971 6.2947-5.7432 15.446-4.0071 23.127-5.8614 7.173-0.16699 13.782-3.1434 19.635-7.1022 5.1758-4.2414 10.906 0.57239 15.573 3.1896 5.2463 3.4305 10.328 7.124 15.928 9.9756" stroke-width="1.25"/>
   <path d="m123.98 264.75c8.7833-20.296 17.605-41.369 36.765-54.2 19.893-15.411 43.349-33.774 69.892-31.4 25.978 9.3655 30.51-22.395 49.053-31.481 16.204-9.1508 41.202 2.6262 51.656-17.937 8.9088-17.622 11.601-15.667 16.253-21.423" stroke-width="3.75"/>
   <path d="m263.89 162.22c-5.3441-20.049-12.928-32.556-8.1133-53.362 1.7665-9.978 13.335-30.306 21.177-36.577 17.186-26.568 17.082-20.36 41.045-27.55" stroke-width="2.5"/>
   <g stroke-width="1.25">
    <path d="m390.75 117.03c-6.0202-21.326-27.742-15.661-35.798-35.96-5.456-8.7053-10.835-34.568-16.073-43.43-10.723-5.2164-19.454-15.433-20.719-27.554-0.24481-0.80786-0.48962-1.6157-0.73444-2.4236"/>
    <path d="m405.31 136.46c3.1687 4.6947 6.7027 9.1421 9.6435 13.99 1.366 12.943 5.3286 26.38 0.97522 39.179-2.7724 9.2516-6.2206 18.712-5.2812 28.532-3.0733 5.2532 0.52847 13.155 6.6882 13.855 5.4366 2.5706 12.92 3.2626 17.284-1.6733 6.6511-5.7259 15.324-9.9855 24.302-8.8516 5.5061-0.28223 10.92-5.4381 9.5902-11.214-0.14777-1.5802-0.54016-3.13-1.077-4.6208"/>
   </g>
   <path d="m434.6 195.55c13.742-2.9169 27.451-6.0575 40.911-10.102 3.6508 0.88034 8.084 0.63687 10.716 3.7874 4.4206 3.4656 8.7109 7.2475 11.742 12.03 5.0845 6.2313 8.8718 13.352 12.375 20.551l0.261 0.5035 0.261 0.5034" stroke-width="2.5"/>
  </g>
  <g stroke-width="1.25">
   <g stroke-linecap="round" stroke-linejoin="round">
    <path d="m474.5 184.95c2.0164-6.7988 5.7239-14.16 2.7598-21.254-3.5026-9.4585-11.07-16.582-15.612-25.449-1.7688-4.61-3.7611-9.6522-8.3352-12.163-4.3417-3.0625-9.7821-3.4672-14.867-4.134-8.229-2.2783-11.93-10.778-16.978-16.802"/>
    <path d="m390.16 226.87c-6.7972 1.7115-13.391 4.3512-20.358 5.3101-10.064 1.0507-20.18 1.7593-30.3 1.7072-3.3703-4.27e-4 -6.3541-1.8742-8.5167-4.3443-3.3912-3.7433-6.1727-7.9883-9.5372-11.759-0.83542-1.0113-1.6716-2.022-2.504-3.0358"/>
    <path d="m325.51 263.23c-9.6891-11.186-24.663-16.915-31.798-30.522-4.2534-6.2496-6.2734-13.969-5.5777-21.501"/>
    <path d="m289.14 257.17c5.7426-2.9502 13.028-4.1812 16.668-10.102"/>
    <path d="m370.46 179.9c11.276 3.0595 25.798 12.542 15.674 25.312-1.0763 2.1696-2.4281 4.208-4.0567 6.0033"/>
    <path d="m388.64 190l13.637-6.0609"/>
    <path d="m416.42 165.25c-6.8292 2.6318-13.565 5.5045-20.203 8.5863"/>
    <path d="m397.73 122.32c10.672-10.285 23.096-18.5 35.637-26.301 2.5833-4.295 2.6192-9.475 4.2638-14.105"/>
    <path d="m468.44 253.64c12.699-7.8503 21.839-22.558 18.657-37.833-0.49725-3.8308-1.4878-7.6027-2.9998-11.16"/>
    <path d="m346.72 194.54c4.2338 3.6252 13.141 5.2508 11.617 12.627"/>
    <path d="m358.34 201.62l6.566-3.0305"/>
    <path d="m237.12 263.74c-9.6546-3.3937-20.343-13.688-15.152-24.749"/>
    <path d="m361.37 262.73l-7.0711-8.0812"/>
    <path d="m455.82 169.8c9.46e-4 -9.4492-0.16202-32.737-15.152-26.769-10.747 4.8623-12.162 20.305-21.213 21.718"/>
    <path d="m458.34 128.38l1.5152-13.637-3.5355-12.627-2.5254-10.102"/>
    <path d="m479.55 167.78c3.3672-2.357 6.7343-4.714 10.102-7.0711"/>
   </g>
   <path d="m123.98 195.55c-5.6478-2.4496-11.572-5.8667-13.8-11.973-2.3717-5.043-2.1072-12.058-7.6295-15.041-3.7839-4.0048-11.003-4.8048-12.454-10.83-0.31586-6.3785-1.4461-13.729-7.1642-17.606-4.3574-3.0553-7.6042-8.9492-13.616-8.6346-5.3962 0.10715-10.562 6.1361-15.803 3.19-6.1038-4.0562-8.9333-11.182-12.24-17.412-2.3733-5.3442-3.0385-11.991 0.49435-17.005 0.47543-0.88629 0.95975-1.7683 1.4004-2.6727"/>
   <path d="m84.08 221.31c-3.1988-3.8722-6.3976-7.7445-9.5964-11.617-0.67343-3.0305-1.3469-6.0609-2.0203-9.0914 1.2212-6.1114 3.3206-12.171 7.078-17.199 0.97897-2.3983-0.61653-5.6543-3.307-5.9067-2.5306 0.46167-5.2582 1.6761-7.76 0.44894-5.0502-1.1587-10.002-3.8513-12.838-8.3136-0.43051-0.47205-0.87825-0.9292-1.3554-1.3545"/>
   <path d="m64.887 153.13c-4.0406-0.67343-8.0812-1.3469-12.122-2.0203-3.0304 1.3469-6.0609 2.6938-9.0914 4.0406-1.1758 3.0491-3.9881 5.8495-3.1666 9.3636 0.63724 6.5649 1.2581 13.7 5.6501 18.983 3.8678 4.313 6.8279 9.3749 9.0579 14.701 1.5452 2.5712 1.8552 5.7487 1.1038 8.6226-0.018829 0.28534-0.026764 0.57156-0.01828 0.85748"/>
   <path d="m116.4 50.092c-3.6042 2.8863-7.2945 6.4981-12.211 6.6033-6.7494 1.4692-12.414 5.7727-17.352 10.39-6.0222 3.6122-13.57 2.194-19.763 5.2845-4.5085 2.7628-8.3581 8.2269-6.6409 13.695 1.1856 3.1871 4.7346 5.0323 5.1764 8.5841 0.70364 3.4381 2.684 6.5984 6.0456 7.9185 0.47218 0.30609 0.92462 0.64954 1.3085 1.0633"/>
   <path d="m191.66 70.8c2.7009-2.7302 5.4606-5.4022 8.1249-8.1686 2.821-5.7211 5.6082-11.487 9.1995-16.776 1.2057-2.0801 2.4512-4.2452 4.5347-5.5735 2.6468-2.1175 5.2936-4.2349 7.9404-6.3523"/>
   <path d="m89.635 208.69c12.217-1.8076 24.457-3.6352 36.806-4.223 2.4539-0.10141 5.0125-0.14944 7.2208-1.3668l7.4911-2.9964"/>
   <path d="m236.61 134.95c2.0203 25.759 3.5355 26.769 3.5355 26.769"/>
   <path d="m185.09 110.7c9.0914 19.193 4.0406 24.244 4.0406 24.244"/>
   <path d="m299.21 61.673c17.173 14.647 13.132 30.81 13.132 30.81"/>
   <path d="m287.66 110.54c1.9993 24.611 33.529 28.479 33.529 28.479"/>
   <path d="m69.937 247.58c15.152-17.172 40.406-1.0101 40.406-1.0101"/>
   <path d="m220.96 226.36c-8.478-7.9885-9.7672-21.716-4.5457-31.82"/>
   <path d="m249.74 179.9c-2.893 9.1945-8.3842 17.468-10.149 27.033-1.0585 1.9753-3.114 3.0849-4.4983 4.7867"/>
   <path d="m289.65 174.34c7.3963 1.5326 14.971 4.2644 22.589 2.5487 7.6408 1.0667 9.48-8.1258 12.261-13.155"/>
   <path d="m328.03 150.1c7.8701 1.6686 16.34 4.0068 24.181 0.94446 6.5628-0.26697 12.319 3.399 18.246 5.6216"/>
   <path d="m360.86 69.285c3.8722-0.33673 7.7445-0.67343 11.617-1.0102 5.6065-4.0424 11.32-7.9386 17.173-11.617"/>
   <path d="m410.86 61.204c-6.8787-7.9094-17.121-11.428-26.764-14.659-7.3747-3.0526-16.285-4.2333-23.531-0.18866-2.7748 1.3934-5.4175 3.0531-8.2935 4.2406"/>
   <path d="m370.96 43.526c-1.2179-3.2937 0.85834-7.3483 4.223-8.3237 2.5555-1.8148 4.4374-4.3874 6.8887-6.3235"/>
   <path d="m291.67 12.212c7.4884 1.7506 12.458 15.343 1.6395 15.759-9.2044 1.6321-18.722 3.0458-26.593 8.5117-6.3113 3.9753-15.415 9.1262-13.884 17.95 4.3876 6.2947 0.66666 12.35-6.4362 13.812-7.0648 5.3701-9.661 14.37-11.829 22.755-3.7149 7.2774-6.5359 16.407-13.689 20.853-9.7585 3.8213-7.4635 14.856-4.6096 22.298 0.25604 9.64-10.117 12.642-14.115 19.686-1.5529 7.9671-7.8951 12.17-13.631 17.027-6.6097 4.8664-1.1998 12.051 3.7988 15.547 0.75983 0.56772 1.5529 1.091 2.3736 1.5664"/>
  </g>
  <path d="m255.3 13.222c-10.564 1.779-14.547 13.282-16.311 22.475-6.4027 6.4562-8.7541 15.976-8.7633 24.118-5.2399 5.8187-16.226 10.171-13.516 19.758 1.4946 11.854-14.123 11.48-22.129 13.184-8.4536-0.13086-20.279-2.7955-24.896 6.6276-4.6571 9.7464-0.003296 20.635-1.216 30.886-1.7296 15.241-11.518 28.24-12.957 43.604-1.5145 10.889-0.68176 21.948 0.79288 32.792" stroke-width="2.5"/>
  <g stroke-width="1.25">
   <path d="m149.23 183.94c-1.3066-10.796-3.5147-21.854-1.0585-32.656 0.69974-6.1521 0.13356-12.372-0.89931-18.453-1.3894-4.119-4.5325-7.2819-6.6285-11.015"/>
   <path d="m217.92 16.252c-0.47339 4.3455-5.4232 5.5361-9.0674 5.7825-10.071 1.0611-19.341 5.5322-29.076 8.03-6.7459 2.3584-12.97 5.9193-19.435 8.9159-3.1988 5.0508-6.3976 10.102-9.5965 15.152-0.069672 4.2175 0.80276 9.747 5.4648 11.192 4.7022 1.9778 9.2344 4.3282 13.883 6.4244 4.9536 4.3944 7.2395 10.819 10.667 16.32 0.77487 1.4806 1.5398 2.9664 2.3098 4.4495"/>
   <path d="m167.42 102.62c-3.3566-2.2488-7.1032-4.5785-11.318-4.2088-4.0806-0.45038-8.1476 0.54849-11.866 2.1671-5.047 1.5576-10.032 3.5085-14.342 6.6135-3.0771 1.7262-5.6751 4.1375-7.9554 6.8004-2.4475 2.3612-4.7356 5.032-5.73 8.3495-0.85126 2.5167-2.7259 4.8989-2.1864 7.6605 0.096115 3.7467 0.11612 7.6925 2.0604 11.032l3.3555 8.0532"/>
   <path d="m112.36 129.39c-4.9473 0.90582-11.315-1.4322-12.376-6.8492-2.9458-5.1494-1.7389-12.515-7.1017-16.229-6.0282-1.1894-9.949-7.8726-8.341-13.749 1.2296-7.3065 8.3406-11.129 13.973-14.837 9.3573-5.6951 20-9.1555 28.735-15.889 4.6194-4.0163-0.2001-10.242 2.0152-14.88 3.355-5.0529 9.9876-5.385 15.075-7.7371 5.2902-2.0429 11.477-3.314 16.75-0.50909l0.7683 0.2712"/>
   <path d="m138.49 59.985c-0.65976 4.5818-7.1083 8.4387-8.4358 14.456 2.252 10.491-1.9464 11.103-12.335 11.085-3.9568 1.1177-5.8701 5.2081-7.0899 8.7893-1.3252 3.8171-1.7801 7.8565-2.3068 11.841"/>
  </g>
  <path d="m165.9 68.78c0.1925-4.6821 1.2924-9.4476 4.9649-12.646 2.3145-2.4295 3.9353-5.4499 4.0782-8.8307l0.039-0.195 0.0093-0.0463"/>
 </g>
</svg>
